<svg width="292" height="36" viewBox="0 0 292 36" fill="none" xmlns="http://www.w3.org/2000/svg">
<path d="M0.816406 1.65625H2.22266V34H0.816406V1.65625ZM9.25391 1.65625H10.6602V26.9688H21.9102V28.375H10.6602V29.7812H21.9102V31.1875H10.6602V32.5938H21.9102V34H9.25391V1.65625ZM6.44141 1.65625H7.84766V34H6.44141V1.65625ZM3.62891 1.65625H5.03516V34H3.62891V1.65625ZM40.4727 1.65625H41.8789V34H40.4727V1.65625ZM37.6602 1.65625H39.0664V34H37.6602V1.65625ZM34.8477 1.65625H36.2539V34H34.8477V1.65625ZM32.0352 1.65625H33.4414V34H32.0352V1.65625ZM62.4336 34H61.0273V1.65625H76.5938V3.0625H62.4336V4.46875H76.5938V5.875H62.4336V7.28125H76.5938V8.6875H62.4336V15.7188H75.9297V17.125H62.4336V18.5312H75.9297V19.9375H62.4336V21.3438H75.9297V22.75H62.4336V34ZM59.6211 34H58.2148V1.65625H59.6211V34ZM56.8086 34H55.4023V1.65625H56.8086V34ZM53.9961 34H52.5898V1.65625H53.9961V34ZM93.9648 34H92.5586V1.65625H93.9648V34ZM91.1523 34H89.7461V1.65625H91.1523V34ZM88.3398 34H86.9336V1.65625H88.3398V34ZM96.7773 26.9688H111.738V28.375H96.7773V29.7812H111.738V31.1875H96.7773V32.5938H111.738V34H95.3711V1.65625H111.738V3.0625H96.7773V4.46875H111.738V5.875H96.7773V7.28125H111.738V8.6875H96.7773V14.3125H104.453V15.7188H96.7773V17.125H104.453V18.5312H96.7773V19.9375H104.453V21.3438H96.7773V26.9688ZM133.551 1.65625H134.957V34H133.551V1.65625ZM141.988 1.65625H143.395V26.9688H154.645V28.375H143.395V29.7812H154.645V31.1875H143.395V32.5938H154.645V34H141.988V1.65625ZM139.176 1.65625H140.582V34H139.176V1.65625ZM136.363 1.65625H137.77V34H136.363V1.65625ZM173.207 1.65625H174.613V34H173.207V1.65625ZM170.395 1.65625H171.801V34H170.395V1.65625ZM167.582 1.65625H168.988V34H167.582V1.65625ZM164.77 1.65625H166.176V34H164.77V1.65625ZM208.293 18.4336L206.887 16.1094V1.65625H208.293V18.4336ZM211.105 23.043L209.699 20.6797V1.65625H211.105V23.043ZM213.918 27.7109L212.512 25.3281V1.65625H213.918V27.7109ZM193.762 17.2227L195.168 19.5469V34H193.762V17.2227ZM190.949 12.6133L192.355 14.9766V34H190.949V12.6133ZM188.137 7.94531L189.543 10.3281V34H188.137V7.94531ZM188.625 1.65625H190.266L210.148 34H208.508L188.625 1.65625ZM191.945 1.65625H193.605L213.469 34H211.789L191.945 1.65625ZM195.246 1.65625H196.887L215.324 31.7148V1.65625H216.73V34C216.73 34 216.177 34 215.07 34L195.246 1.65625ZM186.73 3.94141V34H185.324V1.65625C185.324 1.65625 185.884 1.65625 187.004 1.65625L206.828 34H205.207L186.73 3.94141ZM237.285 34H235.879V1.65625H237.285V34ZM234.473 34H233.066V1.65625H234.473V34ZM231.66 34H230.254V1.65625H231.66V34ZM228.848 34H227.441V1.65625H228.848V34ZM247.559 17.8281L255.82 1.65625H257.383L249.121 17.8281L257.383 34H255.82L247.559 17.8281ZM244.414 17.8281L252.676 1.65625H254.238L245.977 17.8281L254.238 34H252.676L244.414 17.8281ZM241.27 17.8281L249.531 1.65625H251.094L242.832 17.8281L251.094 34H249.531L241.27 17.8281ZM238.105 17.8281L246.387 1.65625H247.949L239.668 17.8281L247.949 34H246.387L238.105 17.8281ZM280.164 14.3125H277.801C276.798 14.3125 276.076 14.0586 275.633 13.5508C275.19 13.0299 274.969 12.3464 274.969 11.5C274.969 9.625 276.368 8.6875 279.168 8.6875C281.798 8.6875 283.777 9.07812 285.105 9.85938L283.973 10.7188C283.061 10.3021 281.46 10.0938 279.168 10.0938C278.048 10.0938 277.293 10.2174 276.902 10.4648C276.525 10.7122 276.336 11.0573 276.336 11.5C276.336 11.9427 276.44 12.2878 276.648 12.5352C276.857 12.7826 277.241 12.9062 277.801 12.9062H280.223C281.98 12.9062 283.562 13.2057 284.969 13.8047C286.388 14.4036 287.553 15.224 288.465 16.2656C289.376 17.2943 290.073 18.4857 290.555 19.8398C291.036 21.181 291.277 22.6198 291.277 24.1562C291.277 25.4062 291.102 26.5911 290.75 27.7109C290.398 28.8307 289.865 29.8594 289.148 30.7969C288.445 31.7344 287.592 32.5482 286.59 33.2383C285.6 33.9154 284.415 34.4427 283.035 34.8203C281.668 35.2109 280.184 35.4062 278.582 35.4062C276.069 35.4062 273.712 35.0221 271.512 34.2539C269.324 33.4987 267.501 32.4375 266.043 31.0703L267.176 30.2305C268.504 31.4284 270.164 32.3594 272.156 33.0234C274.161 33.6745 276.303 34 278.582 34C280.366 34 281.974 33.7461 283.406 33.2383C284.852 32.7174 286.036 32.0078 286.961 31.1094C287.898 30.2109 288.615 29.1693 289.109 27.9844C289.617 26.7995 289.871 25.5234 289.871 24.1562C289.871 22.3464 289.507 20.7122 288.777 19.2539C288.048 17.7826 286.935 16.5911 285.438 15.6797C283.953 14.7682 282.195 14.3125 280.164 14.3125ZM277.801 15.7188H280.027C282.671 15.7188 284.734 16.526 286.219 18.1406C287.716 19.7552 288.465 21.7604 288.465 24.1562C288.465 26.5911 287.599 28.6094 285.867 30.2109C284.135 31.7995 281.707 32.5938 278.582 32.5938C276.499 32.5938 274.552 32.3073 272.742 31.7344C270.932 31.1615 269.428 30.3542 268.23 29.3125L269.324 28.4336C270.392 29.306 271.733 29.9831 273.348 30.4648C274.975 30.9466 276.72 31.1875 278.582 31.1875C281.329 31.1875 283.426 30.5299 284.871 29.2148C286.329 27.8997 287.059 26.2135 287.059 24.1562C287.059 22.125 286.447 20.4453 285.223 19.1172C284.012 17.7891 282.273 17.125 280.008 17.125H277.801C275.9 17.125 274.474 16.6042 273.523 15.5625C272.573 14.5208 272.098 13.1667 272.098 11.5C272.098 9.83333 272.684 8.47917 273.855 7.4375C275.04 6.39583 276.811 5.875 279.168 5.875C280.822 5.875 282.358 6.07031 283.777 6.46094C285.197 6.83854 286.368 7.38542 287.293 8.10156L286.18 8.96094C284.552 7.84115 282.215 7.28125 279.168 7.28125C277.202 7.28125 275.763 7.67188 274.852 8.45312C273.953 9.22135 273.504 10.237 273.504 11.5C273.504 12.776 273.836 13.7982 274.5 14.5664C275.177 15.3346 276.277 15.7188 277.801 15.7188ZM277.801 18.5312H279.949C281.85 18.5312 283.276 19.0586 284.227 20.1133C285.177 21.168 285.652 22.5156 285.652 24.1562C285.652 25.8229 285.06 27.1771 283.875 28.2188C282.703 29.2604 280.939 29.7812 278.582 29.7812C276.928 29.7812 275.385 29.5924 273.953 29.2148C272.534 28.8242 271.362 28.2708 270.438 27.5547L271.551 26.6953C273.178 27.8151 275.522 28.375 278.582 28.375C280.548 28.375 281.98 27.9909 282.879 27.2227C283.79 26.4414 284.246 25.4193 284.246 24.1562C284.246 22.8932 283.908 21.8776 283.23 21.1094C282.553 20.3281 281.453 19.9375 279.93 19.9375H277.801C275.132 19.9375 273.042 19.1432 271.531 17.5547C270.034 15.9531 269.285 13.9349 269.285 11.5C269.285 9.0651 270.151 7.05339 271.883 5.46484C273.615 3.86328 276.043 3.0625 279.168 3.0625C281.251 3.0625 283.191 3.34896 284.988 3.92188C286.798 4.49479 288.302 5.30208 289.5 6.34375L288.406 7.22266C287.339 6.35026 285.997 5.67318 284.383 5.19141C282.768 4.70964 281.03 4.46875 279.168 4.46875C276.421 4.46875 274.318 5.1263 272.859 6.44141C271.414 7.75651 270.691 9.44271 270.691 11.5C270.691 13.5443 271.303 15.2305 272.527 16.5586C273.751 17.8737 275.509 18.5312 277.801 18.5312ZM277.801 21.3438H279.949C280.952 21.3438 281.674 21.6042 282.117 22.125C282.56 22.6458 282.781 23.3229 282.781 24.1562C282.781 26.0312 281.382 26.9688 278.582 26.9688C275.939 26.9688 273.953 26.5781 272.625 25.7969L273.758 24.9375C274.669 25.3542 276.277 25.5625 278.582 25.5625C279.702 25.5625 280.451 25.4388 280.828 25.1914C281.219 24.944 281.414 24.599 281.414 24.1562C281.414 23.7266 281.303 23.388 281.082 23.1406C280.874 22.8802 280.483 22.75 279.91 22.75H277.801C276.004 22.75 274.376 22.457 272.918 21.8711C271.473 21.2852 270.281 20.4779 269.344 19.4492C268.419 18.4206 267.71 17.2292 267.215 15.875C266.72 14.5208 266.473 13.0625 266.473 11.5C266.473 10.25 266.648 9.0651 267 7.94531C267.352 6.82552 267.879 5.79688 268.582 4.85938C269.298 3.92188 270.151 3.11458 271.141 2.4375C272.143 1.7474 273.328 1.21354 274.695 0.835938C276.076 0.445312 277.566 0.25 279.168 0.25C281.681 0.25 284.031 0.634115 286.219 1.40234C288.406 2.15755 290.229 3.21875 291.688 4.58594L290.555 5.42578C289.227 4.22786 287.566 3.30339 285.574 2.65234C283.582 1.98828 281.447 1.65625 279.168 1.65625C277.384 1.65625 275.77 1.91667 274.324 2.4375C272.892 2.94531 271.707 3.64844 270.77 4.54688C269.845 5.44531 269.129 6.48698 268.621 7.67188C268.126 8.85677 267.879 10.1328 267.879 11.5C267.879 13.3359 268.25 14.9896 268.992 16.4609C269.734 17.9323 270.867 19.1172 272.391 20.0156C273.914 20.901 275.717 21.3438 277.801 21.3438Z" fill="white"/>
</svg>